<svg id="Layer_1" data-name="Layer 1" xmlns="http://www.w3.org/2000/svg" viewBox="0 0 624 106"><defs><style>.cls-1{fill:#3b3c98;}.cls-2{font-size:93.11px;font-family:NewestShape-Bold, Newest Shape;font-weight:700;}.cls-3{letter-spacing:-0.02em;}.cls-4{letter-spacing:0em;}.cls-5{letter-spacing:-0.02em;}</style></defs><title>CarDagulArtboard 1</title><g id="SvgjsG2382"><g id="g11"><g id="g9"><path id="path3" class="cls-1" d="M50.85,63.9a8.82,8.82,0,1,0,7.51,4.36A8.67,8.67,0,0,0,50.85,63.9Z"/><path id="path5" class="cls-1" d="M111.88,63.9a8.68,8.68,0,0,0-7.51,4.36,8.59,8.59,0,0,0-1.21,4.36,8.72,8.72,0,0,0,17.44,0,8.5,8.5,0,0,0-1.22-4.36A8.67,8.67,0,0,0,111.88,63.9Z"/><path id="path7" class="cls-1" d="M138,55.18V50.82l-26.15-7.48L81.36,24.67H33.42V29H59.57v4.35H11.62v4.36H63.93V42.1H20.34v4.36H42.13v4.36H33.42v4.36H16v4.36h21.8V63.9H33.42v4.36H20.34v4.36H37.78a12.83,12.83,0,0,1,.8-4.36,13.08,13.08,0,0,1,25.35,4.36H98.8a12.83,12.83,0,0,1,.8-4.36,13,13,0,0,1,24.55,0,12.83,12.83,0,0,1,.8,4.36H138V68.26h4.36V55.18Z"/></g></g></g><text class="cls-2" transform="translate(169.49 82.07)"><tspan class="cls-3">C</tspan><tspan class="cls-4" x="64.74" y="0">a</tspan><tspan class="cls-5" x="123.61" y="0">r</tspan><tspan x="159.98" y="0">Dagul</tspan></text></svg>